<?xml version="1.0" standalone="no"?><!DOCTYPE svg PUBLIC "-//W3C//DTD SVG 1.1//EN" "http://www.w3.org/Graphics/SVG/1.1/DTD/svg11.dtd"><svg t="1517019333473" class="icon" style="" viewBox="0 0 1024 1024" version="1.1" xmlns="http://www.w3.org/2000/svg" p-id="2092" xmlns:xlink="http://www.w3.org/1999/xlink" width="200" height="200"><defs><style type="text/css"></style></defs><path d="M256 224l64 32v672H256z" fill="#E371FF" p-id="2093"></path><path d="M416 320h384v640H416z" fill="#31CFFF" p-id="2094"></path><path d="M608 176c0 8.96-7.04 16-16 16h-192c-8.96 0-16-7.04-16-16s7.04-16 16-16h192c8.96 0 16 7.04 16 16z" fill="#2D2220" p-id="2095"></path><path d="M800 96h16c8.96 0 16-7.04 16-16s-7.04-16-16-16H288C234.88 64 192 106.88 192 160v704c0 53.12 42.88 96 96 96h512c32 0 32-32 32-32V224h-32V96zM336 128H232.64c11.2-19.2 31.68-32 55.36-32h480v32h-112c-8.96 0-16 7.04-16 16s7.04 16 16 16H768v64H288c-35.2 0-64-28.8-64-64h112c8.96 0 16-7.04 16-16s-7.04-16-16-16zM800 896c0 32-32 32-32 32H352v-80c0-8.96-7.04-16-16-16s-16 7.04-16 16V928H288c-35.2 0-64-28.8-64-64V231.04C240.96 246.4 263.36 256 288 256h32v496c0 8.96 7.04 16 16 16s16-7.04 16-16V256h448v640z" fill="#2D2220" p-id="2096"></path></svg>